<svg width="203" height="51" viewBox="0 0 203 51" fill="none" xmlns="http://www.w3.org/2000/svg">
<path d="M2.088 23V6.2H13.944L13.92 9.368H5.04L5.928 8.48L5.952 23H2.088ZM22.3221 23.192C21.2341 23.192 20.2821 22.952 19.4661 22.472C18.6501 21.992 18.0101 21.264 17.5461 20.288C17.0981 19.296 16.8741 18.048 16.8741 16.544C16.8741 15.024 17.0901 13.776 17.5221 12.8C17.9541 11.824 18.5781 11.096 19.3941 10.616C20.2101 10.136 21.1861 9.896 22.3221 9.896C23.5381 9.896 24.6261 10.176 25.5861 10.736C26.5621 11.28 27.3301 12.048 27.8901 13.04C28.4661 14.032 28.7541 15.2 28.7541 16.544C28.7541 17.904 28.4661 19.08 27.8901 20.072C27.3301 21.064 26.5621 21.832 25.5861 22.376C24.6261 22.92 23.5381 23.192 22.3221 23.192ZM14.6901 27.656V10.088H18.2661V12.728L18.1941 16.568L18.4341 20.384V27.656H14.6901ZM21.6741 20.12C22.2981 20.12 22.8501 19.976 23.3301 19.688C23.8261 19.4 24.2181 18.992 24.5061 18.464C24.8101 17.92 24.9621 17.28 24.9621 16.544C24.9621 15.792 24.8101 15.152 24.5061 14.624C24.2181 14.096 23.8261 13.688 23.3301 13.4C22.8501 13.112 22.2981 12.968 21.6741 12.968C21.0501 12.968 20.4901 13.112 19.9941 13.4C19.4981 13.688 19.1061 14.096 18.8181 14.624C18.5301 15.152 18.3861 15.792 18.3861 16.544C18.3861 17.28 18.5301 17.92 18.8181 18.464C19.1061 18.992 19.4981 19.4 19.9941 19.688C20.4901 19.976 21.0501 20.12 21.6741 20.12ZM32.7786 27.848C32.1066 27.848 31.4426 27.744 30.7866 27.536C30.1306 27.328 29.5946 27.04 29.1786 26.672L30.5466 24.008C30.8346 24.264 31.1626 24.464 31.5306 24.608C31.9146 24.752 32.2906 24.824 32.6586 24.824C33.1866 24.824 33.6026 24.696 33.9066 24.44C34.2266 24.2 34.5146 23.792 34.7706 23.216L35.4426 21.632L35.7306 21.224L40.3626 10.088H43.9626L38.1306 23.792C37.7146 24.832 37.2346 25.648 36.6906 26.24C36.1626 26.832 35.5706 27.248 34.9146 27.488C34.2746 27.728 33.5626 27.848 32.7786 27.848ZM34.9866 23.504L29.2266 10.088H33.0906L37.5546 20.888L34.9866 23.504ZM49.8555 23.24C51.0715 23.24 52.1595 23.08 53.1195 22.76C54.0955 22.424 54.8635 21.952 55.4235 21.344C55.9995 20.72 56.2875 19.992 56.2875 19.16C56.2875 18.184 55.8795 17.416 55.0635 16.856C54.2475 16.28 53.1275 15.992 51.7035 15.992L51.6075 16.736C52.4235 16.736 53.1595 16.6 53.8155 16.328C54.4715 16.04 54.9835 15.648 55.3515 15.152C55.7355 14.656 55.9275 14.096 55.9275 13.472C55.9275 12.688 55.6475 12.024 55.0875 11.48C54.5435 10.936 53.7915 10.52 52.8315 10.232C51.8715 9.944 50.7915 9.816 49.5915 9.848C48.7755 9.864 47.9515 9.976 47.1195 10.184C46.2875 10.392 45.4475 10.672 44.5995 11.024L45.5115 13.616C46.2315 13.328 46.9355 13.112 47.6235 12.968C48.3115 12.808 48.9755 12.728 49.6155 12.728C50.1755 12.728 50.6395 12.784 51.0075 12.896C51.3755 12.992 51.6555 13.136 51.8475 13.328C52.0395 13.52 52.1355 13.752 52.1355 14.024C52.1355 14.28 52.0555 14.504 51.8955 14.696C51.7515 14.872 51.5275 15.008 51.2235 15.104C50.9195 15.2 50.5515 15.248 50.1195 15.248H47.7915V17.576H50.4315C51.1035 17.576 51.6155 17.688 51.9675 17.912C52.3195 18.12 52.4955 18.432 52.4955 18.848C52.4955 19.168 52.3835 19.44 52.1595 19.664C51.9355 19.888 51.6075 20.064 51.1755 20.192C50.7595 20.304 50.2635 20.36 49.6875 20.36C48.8875 20.36 48.0955 20.28 47.3115 20.12C46.5435 19.944 45.8315 19.696 45.1755 19.376L44.1675 21.992C44.9995 22.408 45.9035 22.72 46.8795 22.928C47.8715 23.136 48.8635 23.24 49.8555 23.24ZM65.0121 23.192C63.6361 23.192 62.4121 22.904 61.3401 22.328C60.2841 21.752 59.4441 20.968 58.8201 19.976C58.2121 18.968 57.9081 17.824 57.9081 16.544C57.9081 15.248 58.2121 14.104 58.8201 13.112C59.4441 12.104 60.2841 11.32 61.3401 10.76C62.4121 10.184 63.6361 9.896 65.0121 9.896C66.3721 9.896 67.5881 10.184 68.6601 10.76C69.7321 11.32 70.5721 12.096 71.1801 13.088C71.7881 14.08 72.0921 15.232 72.0921 16.544C72.0921 17.824 71.7881 18.968 71.1801 19.976C70.5721 20.968 69.7321 21.752 68.6601 22.328C67.5881 22.904 66.3721 23.192 65.0121 23.192ZM65.0121 20.12C65.6361 20.12 66.1961 19.976 66.6921 19.688C67.1881 19.4 67.5801 18.992 67.8681 18.464C68.1561 17.92 68.3001 17.28 68.3001 16.544C68.3001 15.792 68.1561 15.152 67.8681 14.624C67.5801 14.096 67.1881 13.688 66.6921 13.4C66.1961 13.112 65.6361 12.968 65.0121 12.968C64.3881 12.968 63.8281 13.112 63.3321 13.4C62.8361 13.688 62.4361 14.096 62.1321 14.624C61.8441 15.152 61.7001 15.792 61.7001 16.544C61.7001 17.28 61.8441 17.92 62.1321 18.464C62.4361 18.992 62.8361 19.4 63.3321 19.688C63.8281 19.976 64.3881 20.12 65.0121 20.12ZM74.3496 17.744V14.744H81.1416V17.744H74.3496ZM86.5164 17.768V15.2H93.2604V17.768H86.5164ZM88.3164 9.848C89.7244 9.848 90.9724 10.136 92.0604 10.712C93.1484 11.272 94.0044 12.056 94.6284 13.064C95.2524 14.072 95.5644 15.232 95.5644 16.544C95.5644 17.84 95.2524 19 94.6284 20.024C94.0044 21.032 93.1484 21.824 92.0604 22.4C90.9724 22.96 89.7244 23.24 88.3164 23.24C87.0844 23.24 85.9644 23.04 84.9564 22.64C83.9644 22.224 83.1404 21.632 82.4844 20.864L84.6204 18.848C85.1004 19.328 85.6284 19.704 86.2044 19.976C86.7964 20.232 87.4524 20.36 88.1724 20.36C88.9564 20.36 89.6364 20.2 90.2124 19.88C90.8044 19.56 91.2684 19.112 91.6044 18.536C91.9404 17.96 92.1084 17.296 92.1084 16.544C92.1084 15.776 91.9404 15.104 91.6044 14.528C91.2684 13.952 90.8044 13.504 90.2124 13.184C89.6364 12.864 88.9564 12.704 88.1724 12.704C87.4524 12.704 86.7964 12.84 86.2044 13.112C85.6284 13.368 85.1004 13.744 84.6204 14.24L82.4844 12.248C83.1404 11.464 83.9644 10.872 84.9564 10.472C85.9644 10.056 87.0844 9.848 88.3164 9.848ZM107.249 23L102.929 16.88L105.977 15.08L111.665 23H107.249ZM98.1047 23V10.088H101.849V23H98.1047ZM100.745 18.104V15.104H105.257V18.104H100.745ZM106.337 16.976L102.833 16.592L107.369 10.088H111.353L106.337 16.976ZM119.249 23.192C117.857 23.192 116.617 22.912 115.529 22.352C114.441 21.776 113.585 20.984 112.961 19.976C112.353 18.968 112.049 17.824 112.049 16.544C112.049 15.248 112.353 14.104 112.961 13.112C113.585 12.104 114.441 11.32 115.529 10.76C116.617 10.184 117.857 9.896 119.249 9.896C120.609 9.896 121.793 10.184 122.801 10.76C123.809 11.32 124.553 12.128 125.033 13.184L122.129 14.744C121.793 14.136 121.369 13.688 120.857 13.4C120.361 13.112 119.817 12.968 119.225 12.968C118.585 12.968 118.009 13.112 117.497 13.4C116.985 13.688 116.577 14.096 116.273 14.624C115.985 15.152 115.841 15.792 115.841 16.544C115.841 17.296 115.985 17.936 116.273 18.464C116.577 18.992 116.985 19.4 117.497 19.688C118.009 19.976 118.585 20.12 119.225 20.12C119.817 20.12 120.361 19.984 120.857 19.712C121.369 19.424 121.793 18.968 122.129 18.344L125.033 19.928C124.553 20.968 123.809 21.776 122.801 22.352C121.793 22.912 120.609 23.192 119.249 23.192ZM127.308 23V10.088H140.148V23H136.404V12.32L137.244 13.16H130.188L131.028 12.32V23H127.308ZM151.346 23.192C150.258 23.192 149.306 22.952 148.49 22.472C147.674 21.992 147.034 21.264 146.57 20.288C146.122 19.296 145.898 18.048 145.898 16.544C145.898 15.024 146.114 13.776 146.546 12.8C146.978 11.824 147.602 11.096 148.418 10.616C149.234 10.136 150.21 9.896 151.346 9.896C152.562 9.896 153.65 10.176 154.609 10.736C155.586 11.28 156.354 12.048 156.914 13.04C157.49 14.032 157.778 15.2 157.778 16.544C157.778 17.904 157.49 19.08 156.914 20.072C156.354 21.064 155.586 21.832 154.609 22.376C153.65 22.92 152.562 23.192 151.346 23.192ZM143.714 27.656V10.088H147.29V12.728L147.218 16.568L147.458 20.384V27.656H143.714ZM150.698 20.12C151.322 20.12 151.874 19.976 152.354 19.688C152.85 19.4 153.242 18.992 153.53 18.464C153.834 17.92 153.986 17.28 153.986 16.544C153.986 15.792 153.834 15.152 153.53 14.624C153.242 14.096 152.85 13.688 152.354 13.4C151.874 13.112 151.322 12.968 150.698 12.968C150.074 12.968 149.514 13.112 149.018 13.4C148.522 13.688 148.13 14.096 147.842 14.624C147.554 15.152 147.41 15.792 147.41 16.544C147.41 17.28 147.554 17.92 147.842 18.464C148.13 18.992 148.522 19.4 149.018 19.688C149.514 19.976 150.074 20.12 150.698 20.12ZM166.714 23.192C165.242 23.192 163.946 22.904 162.826 22.328C161.722 21.752 160.866 20.968 160.258 19.976C159.65 18.968 159.346 17.824 159.346 16.544C159.346 15.248 159.642 14.104 160.234 13.112C160.842 12.104 161.666 11.32 162.706 10.76C163.746 10.184 164.922 9.896 166.234 9.896C167.498 9.896 168.634 10.168 169.642 10.712C170.666 11.24 171.474 12.008 172.066 13.016C172.658 14.008 172.954 15.2 172.954 16.592C172.954 16.736 172.946 16.904 172.93 17.096C172.914 17.272 172.898 17.44 172.882 17.6H162.394V15.416H170.914L169.474 16.064C169.474 15.392 169.338 14.808 169.066 14.312C168.794 13.816 168.418 13.432 167.938 13.16C167.458 12.872 166.898 12.728 166.258 12.728C165.618 12.728 165.05 12.872 164.554 13.16C164.074 13.432 163.698 13.824 163.426 14.336C163.154 14.832 163.018 15.424 163.018 16.112V16.688C163.018 17.392 163.17 18.016 163.474 18.56C163.794 19.088 164.234 19.496 164.794 19.784C165.37 20.056 166.042 20.192 166.81 20.192C167.498 20.192 168.098 20.088 168.61 19.88C169.138 19.672 169.618 19.36 170.05 18.944L172.042 21.104C171.45 21.776 170.706 22.296 169.81 22.664C168.914 23.016 167.882 23.192 166.714 23.192ZM181.967 23.192C180.575 23.192 179.335 22.912 178.247 22.352C177.159 21.776 176.303 20.984 175.679 19.976C175.071 18.968 174.767 17.824 174.767 16.544C174.767 15.248 175.071 14.104 175.679 13.112C176.303 12.104 177.159 11.32 178.247 10.76C179.335 10.184 180.575 9.896 181.967 9.896C183.327 9.896 184.511 10.184 185.519 10.76C186.527 11.32 187.271 12.128 187.751 13.184L184.847 14.744C184.511 14.136 184.087 13.688 183.575 13.4C183.079 13.112 182.535 12.968 181.943 12.968C181.303 12.968 180.727 13.112 180.215 13.4C179.703 13.688 179.295 14.096 178.991 14.624C178.703 15.152 178.559 15.792 178.559 16.544C178.559 17.296 178.703 17.936 178.991 18.464C179.295 18.992 179.703 19.4 180.215 19.688C180.727 19.976 181.303 20.12 181.943 20.12C182.535 20.12 183.079 19.984 183.575 19.712C184.087 19.424 184.511 18.968 184.847 18.344L187.751 19.928C187.271 20.968 186.527 21.776 185.519 22.352C184.511 22.912 183.327 23.192 181.967 23.192ZM196.007 23.192C194.615 23.192 193.375 22.912 192.287 22.352C191.199 21.776 190.343 20.984 189.719 19.976C189.111 18.968 188.807 17.824 188.807 16.544C188.807 15.248 189.111 14.104 189.719 13.112C190.343 12.104 191.199 11.32 192.287 10.76C193.375 10.184 194.615 9.896 196.007 9.896C197.367 9.896 198.551 10.184 199.559 10.76C200.567 11.32 201.311 12.128 201.791 13.184L198.887 14.744C198.551 14.136 198.127 13.688 197.615 13.4C197.119 13.112 196.575 12.968 195.983 12.968C195.343 12.968 194.767 13.112 194.255 13.4C193.743 13.688 193.335 14.096 193.031 14.624C192.743 15.152 192.599 15.792 192.599 16.544C192.599 17.296 192.743 17.936 193.031 18.464C193.335 18.992 193.743 19.4 194.255 19.688C194.767 19.976 195.343 20.12 195.983 20.12C196.575 20.12 197.119 19.984 197.615 19.712C198.127 19.424 198.551 18.968 198.887 18.344L201.791 19.928C201.311 20.968 200.567 21.776 199.559 22.352C198.551 22.912 197.367 23.192 196.007 23.192Z" fill="white"/>
<path d="M123.914 29.4067C124.138 28.9022 123.911 28.3111 123.407 28.0864L115.185 24.426C114.68 24.2014 114.089 24.4283 113.864 24.9328C113.64 25.4374 113.867 26.0285 114.371 26.2531L121.68 29.5068L118.426 36.8153C118.201 37.3198 118.428 37.9109 118.933 38.1355C119.437 38.3602 120.028 38.1332 120.253 37.6287L123.914 29.4067ZM2.63348 29.9304C27.4245 39.6966 45.3831 44.4277 63.2947 44.3274C81.2022 44.2272 98.9651 39.2979 123.358 29.9336L122.642 28.0664C98.3059 37.4086 80.8188 42.2293 63.2835 42.3275C45.7524 42.4256 28.0755 37.8034 3.36652 28.0696L2.63348 29.9304Z" fill="white"/>
</svg>
